<svg width="61" height="37" viewBox="0 0 61 37" fill="none" xmlns="http://www.w3.org/2000/svg">
<g filter="url(#filter0_dd_13_4)">
<path d="M22.392 28V20.224H21.096V11.776C21.096 10.432 20.776 9.424 20.136 8.752C19.496 8.08 18.472 7.744 17.064 7.744C16.36 7.744 15.432 7.76 14.28 7.792C13.128 7.824 11.944 7.872 10.728 7.936C9.512 8 8.408 8.064 7.416 8.128V1.648C8.152 1.584 9.016 1.52 10.008 1.456C11 1.392 12.024 1.344 13.08 1.312C14.136 1.28 15.128 1.264 16.056 1.264C18.744 1.264 21 1.648 22.824 2.416C24.68 3.184 26.088 4.352 27.048 5.92C28.008 7.456 28.488 9.44 28.488 11.872V28H22.392ZM13.992 28.672C12.104 28.672 10.44 28.336 9 27.664C7.592 26.992 6.488 26.032 5.688 24.784C4.888 23.504 4.488 21.984 4.488 20.224C4.488 18.304 4.984 16.736 5.976 15.52C6.968 14.272 8.36 13.36 10.152 12.784C11.944 12.176 14.008 11.872 16.344 11.872H21.96V16.144H16.296C14.952 16.144 13.912 16.48 13.176 17.152C12.472 17.792 12.12 18.672 12.12 19.792C12.12 20.848 12.472 21.712 13.176 22.384C13.912 23.024 14.952 23.344 16.296 23.344C17.16 23.344 17.928 23.2 18.6 22.912C19.304 22.592 19.88 22.064 20.328 21.328C20.776 20.592 21.032 19.568 21.096 18.256L22.92 20.176C22.76 22 22.312 23.536 21.576 24.784C20.872 26.032 19.88 26.992 18.6 27.664C17.352 28.336 15.816 28.672 13.992 28.672ZM44.988 28.816C41.244 28.816 38.316 28.048 36.204 26.512C34.092 24.976 32.972 22.816 32.844 20.032H39.66C39.788 20.864 40.284 21.616 41.148 22.288C42.044 22.928 43.372 23.248 45.132 23.248C46.476 23.248 47.58 23.024 48.444 22.576C49.34 22.096 49.788 21.424 49.788 20.56C49.788 19.792 49.452 19.184 48.78 18.736C48.108 18.256 46.908 17.92 45.18 17.728L43.116 17.536C39.948 17.216 37.564 16.336 35.964 14.896C34.396 13.456 33.612 11.616 33.612 9.376C33.612 7.52 34.076 5.968 35.004 4.72C35.932 3.472 37.212 2.528 38.844 1.888C40.508 1.248 42.396 0.927999 44.508 0.927999C47.9 0.927999 50.636 1.68 52.716 3.184C54.796 4.656 55.884 6.8 55.98 9.616H49.164C49.036 8.752 48.588 8.032 47.82 7.456C47.052 6.848 45.916 6.544 44.412 6.544C43.228 6.544 42.284 6.768 41.58 7.216C40.876 7.664 40.524 8.272 40.524 9.04C40.524 9.776 40.828 10.336 41.436 10.72C42.044 11.104 43.036 11.376 44.412 11.536L46.476 11.728C49.708 12.08 52.22 12.976 54.012 14.416C55.804 15.856 56.7 17.792 56.7 20.224C56.7 21.984 56.22 23.52 55.26 24.832C54.3 26.112 52.94 27.104 51.18 27.808C49.42 28.48 47.356 28.816 44.988 28.816Z" fill="white"/>
</g>
<defs>
<filter id="filter0_dd_13_4" x="0.488007" y="0.927979" width="60.212" height="35.888" filterUnits="userSpaceOnUse" color-interpolation-filters="sRGB">
<feFlood flood-opacity="0" result="BackgroundImageFix"/>
<feColorMatrix in="SourceAlpha" type="matrix" values="0 0 0 0 0 0 0 0 0 0 0 0 0 0 0 0 0 0 127 0" result="hardAlpha"/>
<feOffset dy="4"/>
<feGaussianBlur stdDeviation="2"/>
<feComposite in2="hardAlpha" operator="out"/>
<feColorMatrix type="matrix" values="0 0 0 0 0 0 0 0 0 0 0 0 0 0 0 0 0 0 0.25 0"/>
<feBlend mode="normal" in2="BackgroundImageFix" result="effect1_dropShadow_13_4"/>
<feColorMatrix in="SourceAlpha" type="matrix" values="0 0 0 0 0 0 0 0 0 0 0 0 0 0 0 0 0 0 127 0" result="hardAlpha"/>
<feOffset dy="4"/>
<feGaussianBlur stdDeviation="2"/>
<feComposite in2="hardAlpha" operator="out"/>
<feColorMatrix type="matrix" values="0 0 0 0 0 0 0 0 0 0 0 0 0 0 0 0 0 0 0.25 0"/>
<feBlend mode="normal" in2="effect1_dropShadow_13_4" result="effect2_dropShadow_13_4"/>
<feBlend mode="normal" in="SourceGraphic" in2="effect2_dropShadow_13_4" result="shape"/>
</filter>
</defs>
</svg>
